<svg xmlns="http://www.w3.org/2000/svg" version="1.1"
    xmlns:xlink="http://www.w3.org/1999/xlink"
    xmlns:svgjs="http://svgjs.com/svgjs" width="512" height="512" x="0" y="0" viewBox="0 0 447.844 447.844" style="enable-background:new 0 0 512 512" xml:space="preserve" class="">
    <g>
        <path d="M438.845 226.307c-4.224-2.852-11.456-7.737-43.696 10.828 1.564-45.65-28.502-96.438-48.483-121.253a282.8 282.8 0 0 0-38.19-39.886c4.912-8.015 4.653-23.164 20.956-44.071 4.191-5.383 8.527-10.945 6.121-17.844-5.377-15.333-43.877-9.777-59.781-6.652a56.281 56.281 0 0 1-38.996-3.664 26.136 26.136 0 0 0-24.941-1.133c-6.152 3.375-20.438 12.332-20.305 22.602a11.415 11.415 0 0 0 6.59 10.113c9.538 4.912 13.153 29.868 21.636 42.737a266.777 266.777 0 0 0-30.347 29.283c-.662.736-62.688 73.075-56.459 132.769a99.888 99.888 0 0 0-62.363 47.332l-2.498-3.085c-5.55-6.868-15.618-7.936-22.486-2.386l-.018.015-36.49 29.553c-6.868 5.548-7.938 15.613-2.389 22.481l.018.023 87.332 107.84c5.554 6.866 15.623 7.93 22.489 2.376l.011-.009 36.496-29.551v-.004c6.867-5.559 7.927-15.631 2.368-22.498l-.005-.006-1.952-2.41c47.081-16.617 78.038-1.312 109.065-1.312 79.316 0 167.598-98.48 180.535-140.465 3.981-12.911-.097-18.938-4.218-21.723zM209.529 23.768a52.163 52.163 0 0 1 10-7.109c2.629-1.453 4.32-.98 11.035 1.852a71.88 71.88 0 0 0 48.285 4.617 133.788 133.788 0 0 1 39.219-2.664 139.36 139.36 0 0 1-1.258 1.625c-8.991 11.55-13.012 17.784-21.553 44.273a54.215 54.215 0 0 0-28.947-9.98 67.011 67.011 0 0 0-33.565 12.286c-6.856-11.094-9.955-34.366-23.216-44.9zm-8.207 94.277c25.75-28.719 49.551-45.363 65.293-45.664l.344-.004c15.352 0 39.824 19.477 67.246 53.535 26.236 32.587 50.858 84.32 43.789 121.835-10.331 6.752-22.512 15.29-36.884 26.009a19.002 19.002 0 0 0-4.667-7.023c-7.539-7.223-21.82-10.012-42.43-8.324-5.616.465-13.704.622-22.338.444.089-.327.157-.659.201-.995v-6.953c36.241-7.301 38.174-54.558-7.551-59.204-29.545-3-21.959-27.762-.449-27.762a20.64 20.64 0 0 1 17.18 8.035 8 8 0 0 0 13.375-8.781 34.926 34.926 0 0 0-22.555-14.411v-6.933a8 8 0 0 0-16 0v6.953c-35.97 7.247-38.263 54.265 6.836 58.817 30.233 3.077 22.965 28.148 1.164 28.148a20.41 20.41 0 0 1-17.328-8.273 8.002 8.002 0 0 0-13.578 8.469 34.64 34.64 0 0 0 22.906 14.962v6.933c0 .105.056.192.06.296a126.79 126.79 0 0 1-23.923-3.378c-19.274-5.698-18.959-9.213-40.922-13.926a144.493 144.493 0 0 0-42.25-3.183c-4.064-45.362 40.491-106.249 52.481-119.622zM106.49 431.838 19.162 324.002l36.488-29.555 78.581 97.022.062.076 8.697 10.738-36.5 29.555zm155.75-59.344c-29.495-.111-65.495-16.881-119.402 4.19l-61.504-75.947c22.807-40.159 57.651-54.698 106.406-44.24 20.19 4.327 18.969 7.483 39.742 13.621a255.424 255.424 0 0 0 67.848 4.234c22.164-1.832 28.594 2.543 30.039 3.93a2.887 2.887 0 0 1 .992 2.488c-.207 5.109-14.801 18.715-32.391 25.828-12.672 5.133-32.383 3.289-51.441 1.504-18.348-1.707-35.668-3.328-48.668.832a7.999 7.999 0 0 0 4.883 15.234c9.879-3.168 26.355-1.625 42.297-.133 20.96 1.957 42.647 3.984 58.93-2.602a103.223 103.223 0 0 0 30.752-19.655c71.955-55.928 93.084-61.735 97.962-62.208-2.983 26.683-88.564 132.924-166.445 132.924z" fill="#000000" data-original="#000000" class=""></path>
    </g>
</svg>