<svg width="64" height="64" viewBox="0 0 64 64" fill="none" xmlns="http://www.w3.org/2000/svg">
<path d="M22 10H42V54H22V10Z" fill="#EC1C24"/>
<path d="M10 10C3.373 10 0 14.925 0 21V43C0 49.075 3.373 54 10 54H22V10H10Z" fill="#007A5E"/>
<path d="M54.0002 10H42.0002V54H54.0002C60.6272 54 64.0002 49.075 64.0002 43V21C64.0002 14.925 60.6272 10 54.0002 10ZM40.4622 28.689L34.2602 28.7L32.3402 22.426L30.4262 28.7L24.2202 28.689L29.2502 32.511L27.2982 38.743L32.3482 34.872L37.3982 38.743L35.4402 32.511L40.4622 28.689Z" fill="#F9CB38"/>
</svg>
