<svg xmlns="http://www.w3.org/2000/svg" version="1.1"
    xmlns:xlink="http://www.w3.org/1999/xlink"
    xmlns:svgjs="http://svgjs.com/svgjs" width="512" height="512" x="0" y="0" viewBox="0 0 512 512" style="enable-background:new 0 0 512 512" xml:space="preserve" class="">
    <g>
        <path d="M489.5 383.5h-467c-8.284 0-15 6.716-15 15 0 8.284 6.716 15 15 15h467c8.284 0 15-6.716 15-15 0-8.284-6.716-15-15-15zM196 458.5h194.238l26.372-26.958A59.998 59.998 0 0 1 459.5 413.5M52.5 413.5a60.002 60.002 0 0 1 42.89 18.042l26.371 26.958H166M162.804 321.033C188.399 341.356 220.779 353.5 256 353.5c82.843 0 150-67.157 150-150s-67.157-150-150-150c-25.111 0-48.776 6.176-69.569 17.085-7.183 3.768-12.247 10.481-14.515 18.269-2.046 7.024-5.836 13.648-11.375 19.186s-12.162 9.329-19.186 11.375c-7.788 2.268-14.501 7.333-18.269 14.515C112.176 154.724 106 178.389 106 203.5c0 36.816 13.272 70.528 35.281 96.63" style="stroke-width:15;stroke-linecap:round;stroke-linejoin:round;stroke-miterlimit:10;" fill="none" stroke="#000000" stroke-width="15" stroke-linecap="round" stroke-linejoin="round" stroke-miterlimit="10" data-original="#000000" class=""></path>
    </g>
</svg>