<svg xmlns="http://www.w3.org/2000/svg" version="1.1"
    xmlns:xlink="http://www.w3.org/1999/xlink"
    xmlns:svgjs="http://svgjs.com/svgjs" width="512" height="512" x="0" y="0" viewBox="0 0 487.316 487.316" style="enable-background:new 0 0 512 512" xml:space="preserve" class="">
    <g>
        <path d="M347.658 0h-288c-30.911.04-55.96 25.089-56 56v287.336c.04 30.911 25.089 55.96 56 56h88v-16h-88c-22.08-.026-39.974-17.92-40-40V208h51.376a8.608 8.608 0 0 0 7.328-11.872c-7.11-16.18.242-35.06 16.422-42.17 16.18-7.11 35.06.242 42.17 16.422a32.002 32.002 0 0 1 0 25.748 8.296 8.296 0 0 0 7.328 11.873h51.376v48a46.826 46.826 0 0 0-8-.664c-26.51-.009-48.007 21.474-48.017 47.983a48 48 0 0 0 28.817 44.017l6.4-14.656c-16.206-7.05-23.629-25.902-16.58-42.108a32 32 0 0 1 29.38-19.236 31.61 31.61 0 0 1 12.8 2.704 8 8 0 0 0 11.2-7.328V208h40.68a46.833 46.833 0 0 0-.68 8c.048 22.794 16.077 42.43 38.4 47.04l3.2-15.672c-14.882-3.079-25.567-16.171-25.6-31.368a31.61 31.61 0 0 1 2.704-12.8 8 8 0 0 0-7.328-11.2h-51.376v-40.68c2.642.455 5.319.683 8 .68 26.51 0 48-21.49 48-48s-21.49-48-48-48a46.833 46.833 0 0 0-8 .68V16h136c22.08.026 39.974 17.92 40 40v136h-51.376a8 8 0 0 0-7.328 11.2 31.61 31.61 0 0 1 2.704 12.8h16a46.833 46.833 0 0 0-.68-8h48.68a8 8 0 0 0 8-8V56c-.04-30.911-25.089-55.96-56-56zm-128 72c17.673 0 32 14.327 32 32s-14.327 32-32 32a31.61 31.61 0 0 1-12.8-2.704 8 8 0 0 0-11.2 7.328v50.712h-40.624c.401-2.425.609-4.878.624-7.336V183.336c0-26.51-21.49-48-48-48s-48 21.49-48 48V184c.015 2.458.223 4.911.624 7.336H19.658V56c.026-22.08 17.92-39.974 40-40h136v51.376a8 8 0 0 0 11.2 7.328 31.61 31.61 0 0 1 12.8-2.704z" fill="#000000" data-original="#000000" class=""></path>
        <path d="m466.546 343.856-67.256-46.312-25.832-69.016A8 8 0 0 0 362.73 224l-52 23a8 8 0 0 0-4.24 10.176c.864 2.24 1.672 3.936 2.528 5.696s1.648 3.408 2.616 6.008c6.21 16.593-2.151 35.087-18.712 41.384-16.553 6.191-34.991-2.208-41.183-18.762a31.994 31.994 0 0 1-1.977-13.006 8 8 0 0 0-10.816-7.904l-55.584 20.936a8 8 0 0 0-4.672 10.288l19.952 53.304a45.09 45.09 0 0 0-7.76 2.144c-24.895 9.277-37.555 36.979-28.278 61.874 9.277 24.895 36.979 37.555 61.874 28.278a48.024 48.024 0 0 0 7.404-3.504l14.304 38.208a8 8 0 0 0 10.298 4.685l.014-.005 79.264-29.864a42.96 42.96 0 0 0 25.336 22.624l5.056-15.2a26.976 26.976 0 0 1-15.296-13.072l24.12-9.08c7.923 22.285 29.029 37.159 52.68 37.128v-16c-22.035-.135-39.865-17.965-40-40a8 8 0 0 0-2.344-5.656l-27.856-27.856a11.864 11.864 0 0 1-1.096-15.432 11.647 11.647 0 0 1 8.6-4.688c3.421-.288 6.79.972 9.184 3.432l55.856 55.856 11.312-11.312-16.528-16.528a55.808 55.808 0 0 0-.712-37.4l-14.992-40.04L457.426 357a24.049 24.049 0 0 1 10.232 19.664V480h16V376.664a40.07 40.07 0 0 0-17.112-32.808zM409.09 369.36a40.092 40.092 0 0 1 2.336 18.424l-25.968-25.96c-10.719-10.993-28.319-11.214-39.312-.496-10.993 10.719-11.214 28.319-.496 39.312.163.167.328.333.496.496l25.304 25.304-113.056 42.584-15.248-40.744a8 8 0 0 0-7.488-5.192 8.002 8.002 0 0 0-5.6 2.28c-12.846 12.137-33.1 11.562-45.237-1.285-12.137-12.846-11.562-33.1 1.285-45.237a32.005 32.005 0 0 1 10.448-6.591 30.787 30.787 0 0 1 7.912-1.792 28.405 28.405 0 0 1 5.016-.168 8 8 0 0 0 7.912-10.792l-20.896-55.792 38.096-14.344c5 26.034 30.158 43.085 56.192 38.086a47.962 47.962 0 0 0 7.808-2.198c24.807-9.412 37.346-37.099 28.056-61.952a71.236 71.236 0 0 0-2.04-4.92l36.8-16.296 47.68 127.273z" fill="#000000" data-original="#000000" class=""></path>
    </g>
</svg>