<!-- <?xml version="1.0" ?>
<svg enable-background="new 0 0 32 32" id="Glyph" version="1.1" viewBox="0 0 32 32" xml:space="preserve" xmlns="http://www.w3.org/2000/svg" xmlns:xlink="http://www.w3.org/1999/xlink">
    <path d="M30.854,16.548C30.523,17.43,29.703,18,28.764,18H28v11c0,0.552-0.448,1-1,1h-6v-7c0-2.757-2.243-5-5-5  s-5,2.243-5,5v7H5c-0.552,0-1-0.448-1-1V18H3.235c-0.939,0-1.759-0.569-2.09-1.451c-0.331-0.882-0.088-1.852,0.62-2.47L13.444,3.019  c1.434-1.357,3.679-1.357,5.112,0l11.707,11.086C30.941,14.696,31.185,15.666,30.854,16.548z" id="XMLID_219_"/>
</svg> -->



<?xml version="1.0" ?>
<svg style="enable-background:new 0 0 24 24;" version="1.1" viewBox="0 0 24 24" xml:space="preserve"
    xmlns="http://www.w3.org/2000/svg"
    xmlns:xlink="http://www.w3.org/1999/xlink">
    <g id="info"/>
    <g id="icons">
        <path d="M23.6,10.3L13.2,2.4c-0.7-0.5-1.7-0.5-2.5,0L0.4,10.3C-0.4,10.9,0,12,1,12h1v6.1C2,20.2,3.8,22,6,22h2   c0.6,0,1-0.4,1-1v-4.9C9,15,9.9,14,11,14h2c1.1,0,2,1,2,2.1V21c0,0.5,0.4,1,1,1h2c2.2,0,4-1.8,4-3.9V12h1   C23.9,12,24.3,10.9,23.6,10.3z" id="home"/>
    </g>
</svg>