<?xml version="1.0" ?>
<svg viewBox="0 0 64 64"
    xmlns="http://www.w3.org/2000/svg">
    <path d="M58.5,17H58V16a5.006,5.006,0,0,0-5-5H44V7a5.006,5.006,0,0,0-5-5H25a5.006,5.006,0,0,0-5,5v4H11a5.006,5.006,0,0,0-5,5v1H5.5a3.5,3.5,0,0,0,0,7H6V57a5.006,5.006,0,0,0,5,5H53a5.006,5.006,0,0,0,5-5V24h.5a3.5,3.5,0,0,0,0-7ZM22,7a3,3,0,0,1,3-3H39a3,3,0,0,1,3,3v4H40V7a1,1,0,0,0-1-1H25a1,1,0,0,0-1,1v4H22Zm4,4V8H38v3ZM8,16a3,3,0,0,1,3-3H53a3,3,0,0,1,3,3v1H8ZM5.5,22a1.5,1.5,0,0,1,0-3H6v3ZM13,56c0-2.405,2.457-5.741,4-7.519,1.544,1.776,4,5.109,4,7.519a6.686,6.686,0,0,1-.116,1.233c-.544-2.3-2.886-4.656-3.185-4.948a1,1,0,0,0-1.4,0c-.3.292-2.641,2.643-3.185,4.948A6.686,6.686,0,0,1,13,56Zm3.442,3.966C15.405,59.839,15,59.307,15,58.143c0-1.031,1.045-2.573,2-3.676.86,1,2,2.572,2,3.676,0,1.164-.405,1.7-1.442,1.823C17.374,59.979,17.2,60,17,60S16.626,59.979,16.442,59.966ZM28,56c0-2.405,2.457-5.741,4-7.519,1.544,1.776,4,5.109,4,7.519a6.686,6.686,0,0,1-.116,1.233c-.544-2.3-2.886-4.656-3.185-4.948a1,1,0,0,0-1.4,0c-.3.292-2.641,2.643-3.185,4.948A6.686,6.686,0,0,1,28,56Zm3.442,3.966C30.405,59.839,30,59.307,30,58.143c0-1.031,1.045-2.573,2-3.676.86,1,2,2.572,2,3.676,0,1.164-.405,1.7-1.442,1.823C32.374,59.979,32.2,60,32,60S31.626,59.979,31.442,59.966ZM43,56c0-2.405,2.457-5.741,4-7.519,1.544,1.776,4,5.109,4,7.519a6.686,6.686,0,0,1-.116,1.233c-.544-2.3-2.886-4.656-3.185-4.948a1,1,0,0,0-1.4,0c-.3.292-2.641,2.643-3.185,4.948A6.686,6.686,0,0,1,43,56Zm3.442,3.966C45.405,59.839,45,59.307,45,58.143c0-1.031,1.045-2.573,2-3.676.86,1,2,2.572,2,3.676,0,1.164-.405,1.7-1.442,1.823C47.374,59.979,47.2,60,47,60S46.626,59.979,46.442,59.966ZM56,57a3,3,0,0,1-3,3H51.806A6.356,6.356,0,0,0,53,56c0-4.225-5.068-9.477-5.284-9.7a1.028,1.028,0,0,0-1.432,0C46.068,46.523,41,51.775,41,56a6.356,6.356,0,0,0,1.194,4H36.806A6.356,6.356,0,0,0,38,56c0-4.225-5.068-9.477-5.284-9.7a1.028,1.028,0,0,0-1.432,0C31.068,46.523,26,51.775,26,56a6.356,6.356,0,0,0,1.194,4H21.806A6.356,6.356,0,0,0,23,56c0-4.225-5.068-9.477-5.284-9.7a1.028,1.028,0,0,0-1.432,0C16.068,46.523,11,51.775,11,56a6.356,6.356,0,0,0,1.194,4H11a3,3,0,0,1-3-3V19H56Zm2.5-35H58V19h.5a1.5,1.5,0,0,1,0,3Z"/>
    <rect height="2" width="2" x="52" y="21"/>
    <rect height="2" width="2" x="48" y="21"/>
    <rect height="2" width="2" x="44" y="21"/>
</svg>