<svg xmlns="http://www.w3.org/2000/svg" version="1.1"
    xmlns:xlink="http://www.w3.org/1999/xlink"
    xmlns:svgjs="http://svgjs.com/svgjs" width="512" height="512" x="0" y="0" viewBox="0 0 50 50" style="enable-background:new 0 0 512 512" xml:space="preserve" class="">
    <g>
        <path d="m26.9 32.2-3.4-3.4c-.4-.4-1-.4-1.4 0s-.4 1 0 1.4l4.1 4.1c.2.2.5.3.7.3.3 0 .5-.1.7-.3l8.3-8.3c.4-.4.4-1 0-1.4s-1-.4-1.4 0z" fill="#000000" data-original="#000000" class=""></path>
        <path d="m47.6 40.9-6.8-6.8c.5-1.2.9-2.5 1-3.8.3-3.4-.7-6.8-2.9-9.4-1.2-1.5-2.7-2.6-4.4-3.4v-5.2c0-2.4-2-4.4-4.5-4.4h-2.7V6.5c0-1.5-1.2-2.7-2.8-2.7h-3C21 2.2 19.5 1 17.8 1c-1.8 0-3.2 1.2-3.7 2.7h-3C9.5 3.8 8.3 5 8.3 6.5v1.4H5.6c-2.5 0-4.5 2-4.5 4.4v32.3C1 47 3.1 49 5.6 49H30c2.5 0 4.5-2 4.5-4.5v-3.2l6.3 6.3c1.8 1.8 4.8 1.9 6.7 0s2-4.9.1-6.7zM37.4 22.1c1.8 2.2 2.7 5.1 2.4 7.9-.4 4.1-3 7.5-6.6 9h-.1c-1.6.7-3.3.9-5.2.8-6-.6-10.3-5.9-9.7-11.9.3-2.8 1.6-5.3 3.6-7.1l.1-.1c2.2-1.9 5.2-2.9 8.2-2.6 1.1.1 2.1.4 3.1.8 1.6.8 3 1.8 4.2 3.2zM10.3 6.5c0-.4.4-.7.8-.7H15c.6 0 1-.4 1-1 0-1 .8-1.7 1.8-1.7s1.9.8 1.9 1.7c0 .6.4 1 1 1h3.9c.4 0 .8.3.8.7v4.8c0 .4-.4.7-.8.7H11.1c-.4 0-.8-.3-.8-.7zM30 47H5.6C4.2 47 3 45.9 3 44.6V12.3C3 11 4.1 9.9 5.5 9.9h2.7v1.4c0 1.5 1.2 2.7 2.8 2.7h13.5c1.5 0 2.8-1.2 2.8-2.7V9.9H30c1.4 0 2.5 1.1 2.5 2.4v4.4c-.7-.2-1.5-.4-2.3-.4-3.6-.4-6.9.8-9.5 2.9h-12c-.6 0-1 .4-1 1s.4 1 1 1h10.1c-.7.9-1.2 1.8-1.7 2.9H8.8c-.6 0-1 .4-1 1s.4 1 1 1h7.8c-.1.6-.3 1.2-.3 1.8V29H8.8c-.6 0-1 .4-1 1s.4 1 1 1h7.5c.1 1 .4 1.9.7 2.9H8.8c-.6 0-1 .4-1 1s.4 1 1 1H18c.6 1.1 1.4 2 2.3 2.8H8.8c-.6 0-1 .4-1 1s.4 1 1 1h14.5c1.4.7 2.8 1.1 4.4 1.3s3.2 0 4.8-.4v3.1c.1 1.1-1.1 2.3-2.5 2.3zm16.2-.8c-1.1 1.1-2.8 1.1-3.9 0l-6.4-6.3c1.6-1 2.9-2.3 3.9-3.9l6.3 6.3c1.2 1.1 1.2 2.8.1 3.9z" fill="#000000" data-original="#000000" class=""></path>
    </g>
</svg>