<?xml version="1.0" ?>
<svg id="Layer_1" style="enable-background:new 0 0 300 300;" version="1.1" viewBox="0 0 300 300" xml:space="preserve"
    xmlns="http://www.w3.org/2000/svg"
    xmlns:xlink="http://www.w3.org/1999/xlink">
    <g id="XMLID_11_">
        <path d="M296.4,107.5H3.6c-2,0-3.5,1.6-3.5,3.5v0c0,82.9,66.6,151.1,149.5,151.4c82.9,0.2,150.3-67.1,150.3-149.9   v-1.5C299.9,109.1,298.3,107.5,296.4,107.5z M150,252.4c-75.5,0-137.2-60.1-139.8-134.9h279.6C287.2,192.3,225.5,252.4,150,252.4z" id="XMLID_87_"/>
        <path d="M210.3,258.2c-2.8,0-5,2.2-5,5v8.7c0,3.1-2.5,5.7-5.7,5.7h-99.3c-3.1,0-5.7-2.5-5.7-5.7v-8.7   c0-2.8-2.2-5-5-5s-5,2.2-5,5v8.7c0,8.7,7,15.7,15.7,15.7h99.3c8.7,0,15.7-7,15.7-15.7v-8.7C215.3,260.5,213.1,258.2,210.3,258.2z" id="XMLID_90_"/>
        <path d="M30.3,160c1.8,2.1,5,2.3,7.1,0.4l13.6-12c1.9-1.7,4.7-1.7,6.6,0l17.3,15.3c1.9,1.7,4.7,1.7,6.6,0l17.3-15.3   c1.9-1.7,4.7-1.7,6.6,0l17.3,15.3c1.9,1.7,4.7,1.7,6.6,0l17.3-15.3c1.9-1.7,4.7-1.7,6.6,0l17.3,15.3c1.9,1.7,4.7,1.7,6.6,0   l17.3-15.3c1.9-1.7,4.7-1.7,6.6,0l17.3,15.3c1.9,1.7,4.7,1.7,6.6,0l17.3-15.3c1.9-1.7,4.7-1.7,6.6,0l13.6,12   c2.1,1.8,5.2,1.6,7.1-0.4l0,0c1.8-2.1,1.6-5.2-0.4-7.1L249,135.1c-1.9-1.7-4.7-1.7-6.6,0l-17.3,15.3c-1.9,1.7-4.7,1.7-6.6,0   l-17.3-15.3c-1.9-1.7-4.7-1.7-6.6,0l-17.3,15.3c-1.9,1.7-4.7,1.7-6.6,0l-17.3-15.3c-1.9-1.7-4.7-1.7-6.6,0l-17.3,15.3   c-1.9,1.7-4.7,1.7-6.6,0l-17.3-15.3c-1.9-1.7-4.7-1.7-6.6,0l-17.3,15.3c-1.9,1.7-4.7,1.7-6.6,0l-17.3-15.3c-1.9-1.7-4.7-1.7-6.6,0   l-20.2,17.8C28.7,154.8,28.5,157.9,30.3,160z" id="XMLID_91_"/>
        <path d="M148.3,78.1c-1,2.4-0.1,5.1,2.2,6.4l0,0c2.6,1.4,5.8,0.3,7-2.4c7.6-17.4,1.5-28.4-3.4-37.5   c-4.6-8.4-7.9-14.3-1.8-24.6c1.3-2.2,0.7-5.1-1.3-6.6l0,0c-2.4-1.7-5.8-1-7.3,1.5c-8.9,15.3-3.3,25.5,1.7,34.5   C149.9,57.9,154,65.3,148.3,78.1z" id="XMLID_92_"/>
        <path d="M97.6,78.1c-1,2.4,0,5.1,2.2,6.3l0,0c2.6,1.4,5.9,0.3,7-2.4c6-14.4,0.9-23.6-3.3-31.2   c-3.7-6.6-6.2-11.3-1.8-19.2c1.2-2.2,0.5-4.9-1.5-6.4c-2.4-1.8-5.9-1-7.3,1.7c-6.9,12.7-2.1,21.5,1.9,28.7   C98.5,62.3,101.7,68.2,97.6,78.1z" id="XMLID_93_"/>
        <path d="M198.6,78.1c-1,2.4,0,5.1,2.2,6.3l0,0c2.6,1.4,5.9,0.3,7-2.4c6-14.4,0.9-23.6-3.3-31.2   c-3.7-6.6-6.2-11.3-1.8-19.2c1.2-2.2,0.5-4.9-1.5-6.4l0,0c-2.4-1.8-5.9-1-7.3,1.7c-6.9,12.7-2.1,21.5,1.9,28.7   C199.5,62.3,202.7,68.2,198.6,78.1z" id="XMLID_94_"/>
    </g>
</svg>